<?xml version="1.0" encoding="UTF-8" standalone="no"?>
<svg
   xmlns:dc="http://purl.org/dc/elements/1.1/"
   xmlns:cc="http://creativecommons.org/ns#"
   xmlns:rdf="http://www.w3.org/1999/02/22-rdf-syntax-ns#"
   xmlns:svg="http://www.w3.org/2000/svg"
   xmlns="http://www.w3.org/2000/svg"
   xmlns:sodipodi="http://sodipodi.sourceforge.net/DTD/sodipodi-0.dtd"
   xmlns:inkscape="http://www.inkscape.org/namespaces/inkscape"
   inkscape:export-ydpi="58.514286"
   inkscape:export-xdpi="58.514286"
   width="3150"
   height="750"
   viewBox="0 0 3150 750"
   version="1.1"
   id="svg843"
   sodipodi:docname="logo.svg"
   inkscape:version="1.0 (4035a4fb49, 2020-05-01)">
  <defs
     id="defs837">
    <clipPath
       clipPathUnits="userSpaceOnUse"
       id="clipPath2087">
      <path
         style="display:none;fill:#ffffff;fill-opacity:0.475806;stroke:none;stroke-width:31.75;stroke-linejoin:round;paint-order:stroke fill markers;stop-color:#000000"
         d="m 6.7090774,129.69308 2.8348215,-1.18118 0.9921871,1.74814 -3.8742558,1.37017 z"
         id="path2089" />
      <path
         id="lpe_path-effect2091"
         style="fill:#ffffff;fill-opacity:0.475806;stroke:none;stroke-width:31.75;stroke-linejoin:round;paint-order:stroke fill markers;stop-color:#000000"
         class="powerclip"
         d="M -4.4330357,119.87013 H 20.591518 v 26.77644 H -4.4330357 Z m 11.1421131,9.82295 -0.047247,1.93713 3.8742556,-1.37017 -0.9921869,-1.74814 z" />
    </clipPath>
    <inkscape:path-effect
       effect="powerclip"
       id="path-effect2091"
       is_visible="true"
       lpeversion="1"
       inverse="true"
       flatten="false"
       hide_clip="false"
       message="Use fill-rule evenodd on &lt;b&gt;fill and stroke&lt;/b&gt; dialog if no flatten result after convert clip to paths." />
    <clipPath
       clipPathUnits="userSpaceOnUse"
       id="clipPath2097">
      <path
         style="display:none;fill:#ffffff;fill-opacity:0.479839;stroke:none;stroke-width:31.75;stroke-linejoin:round;paint-order:stroke fill markers;stop-color:#000000"
         d="m 151.42671,135.78795 1.18118,-0.0945 2.55133,5.24442 -6.18935,-1.5119 z"
         id="path2099" />
      <path
         id="lpe_path-effect2101"
         style="fill:#ffffff;fill-opacity:0.479839;stroke:none;stroke-width:31.75;stroke-linejoin:round;paint-order:stroke fill markers;stop-color:#000000"
         class="powerclip"
         d="m 136.18513,121.41848 h 32.18337 v 33.58654 h -32.18337 z m 15.24158,14.36947 -2.45684,3.63802 6.18935,1.5119 -2.55133,-5.24442 z" />
    </clipPath>
    <inkscape:path-effect
       effect="powerclip"
       id="path-effect2101"
       is_visible="true"
       lpeversion="1"
       inverse="true"
       flatten="false"
       hide_clip="false"
       message="Use fill-rule evenodd on &lt;b&gt;fill and stroke&lt;/b&gt; dialog if no flatten result after convert clip to paths." />
  </defs>
  <sodipodi:namedview
     inkscape:snap-global="false"
     inkscape:bbox-nodes="true"
     inkscape:bbox-paths="true"
     inkscape:snap-bbox="true"
     inkscape:snap-smooth-nodes="false"
     id="base"
     pagecolor="#000000"
     bordercolor="#666666"
     borderopacity="1.0"
     inkscape:pageopacity="0"
     inkscape:pageshadow="2"
     inkscape:zoom="0.32138455"
     inkscape:cx="1546.627"
     inkscape:cy="421.07725"
     inkscape:document-units="px"
     inkscape:current-layer="layer1"
     inkscape:document-rotation="0"
     showgrid="true"
     units="px"
     width="1600mm"
     inkscape:window-width="1600"
     inkscape:window-height="838"
     inkscape:window-x="-8"
     inkscape:window-y="-8"
     inkscape:window-maximized="1"
     inkscape:pagecheckerboard="true">
    <inkscape:grid
       type="xygrid"
       id="grid1406"
       spacingx="50"
       spacingy="50"
       empspacing="1"
       dotted="false"
       snapvisiblegridlinesonly="true"
       originx="150"
       originy="-150" />
  </sodipodi:namedview>
  <metadata
     id="metadata840">
    <rdf:RDF>
      <cc:Work
         rdf:about="">
        <dc:format>image/svg+xml</dc:format>
        <dc:type
           rdf:resource="http://purl.org/dc/dcmitype/StillImage" />
        <dc:title />
      </cc:Work>
    </rdf:RDF>
  </metadata>
  <g
     inkscape:label="Layer 1"
     inkscape:groupmode="layer"
     id="layer1"
     transform="translate(150,-150)">
    <path
       id="rect1436-3"
       style="fill:#ffffff;fill-opacity:1;fill-rule:evenodd"
       d="M 800 0 L 800 350 L 1150 350 L 1150 0 L 800 0 z M 975 50 A 125 125 0 0 1 1100 175 A 125 125 0 0 1 975 300 A 125 125 0 0 1 850 175 A 125 125 0 0 1 975 50 z "
       transform="translate(-150,150)" />
    <path
       id="circle879-7"
       style="fill:#ffffff;fill-opacity:1;stroke:none;stroke-width:839.998;stroke-linejoin:round;paint-order:stroke fill markers;stop-color:#000000"
       d="M 2174.873 0 A 175 175 0 0 0 2000 175 A 175 175 0 0 0 2100 333.11328 L 2100 50 L 2250 50 L 2250 333.11328 A 175 175 0 0 0 2350 175 A 175 175 0 0 0 2175 0 A 175 175 0 0 0 2174.873 0 z "
       transform="translate(-150,150)" />
    <path
       id="rect1434-2-2-2"
       style="fill:#ffffff;fill-opacity:1;fill-rule:evenodd"
       d="M 1600 0 L 1600 350 L 1950 350 L 1950 250 L 1895.7109 250 A 75 75 0 0 1 1825 300 A 75 75 0 0 1 1750 225 A 75 75 0 0 1 1769.0996 175 A 75 75 0 0 1 1750 125 A 75 75 0 0 1 1825 50 A 75 75 0 0 1 1895.7109 100 L 1950 100 L 1950 0 L 1600 0 z "
       transform="translate(-150,150)" />
    <rect
       style="fill:#ffffff;fill-opacity:1;fill-rule:evenodd;stroke-width:0.428571"
       id="rect1041-5"
       width="150"
       height="150"
       x="1550"
       y="250" />
    <rect
       style="fill:#ffffff;fill-opacity:1;fill-rule:evenodd;stroke-width:0.654654"
       id="rect1076"
       width="150"
       height="350"
       x="1050"
       y="150" />
    <path
       id="rect1082"
       style="fill:#ffffff;fill-opacity:1;fill-rule:evenodd;stroke-width:0.714286"
       d="M 1300 0 L 1300 250 L 1550 250 L 1550 0 L 1300 0 z M 1425 50 L 1500 200 L 1350 200 L 1425 50 z "
       transform="translate(-150,150)" />
    <path
       id="rect881"
       style="fill:#ffffff;fill-opacity:1;fill-rule:evenodd"
       d="M 0 400 L 0 750 L 50 750 L 50 450 L 300 450 L 300 750 L 350 750 L 350 400 L 0 400 z "
       transform="translate(-150,150)" />
    <path
       transform="matrix(0.86602509,0,0,0.99999974,-104.90379,-99.9998)"
       inkscape:transform-center-y="-25.000029"
       d="m 150,650 86.60254,150 -173.205082,0 z"
       inkscape:randomized="0"
       inkscape:rounded="0"
       inkscape:flatsided="true"
       sodipodi:arg2="-0.52359878"
       sodipodi:arg1="-1.5707963"
       sodipodi:r2="50"
       sodipodi:r1="100"
       sodipodi:cy="750"
       sodipodi:cx="150"
       sodipodi:sides="3"
       id="path885"
       style="fill:#ffffff;fill-opacity:1;stroke:none;stroke-width:120;stroke-linejoin:round;paint-order:stroke fill markers;stop-color:#000000"
       sodipodi:type="star"
       inkscape:transform-center-x="5.2753644e-05" />
    <path
       id="path887"
       style="fill:#ffffff;fill-opacity:1;stroke:none;stroke-width:260.569;stroke-linejoin:round;paint-order:stroke fill markers;stop-color:#000000"
       inkscape:transform-center-x="1.3120744e-05"
       inkscape:transform-center-y="-58.333377"
       d="M 575 400 L 400 750 L 450 750 L 575 500 L 700 750 L 750 750 L 575 400 z "
       transform="translate(-150,150)" />
    <circle
       style="fill:#ffffff;fill-opacity:1;stroke:none;stroke-width:120;stroke-linejoin:round;paint-order:stroke fill markers;stop-color:#000000"
       id="circle891"
       cx="425.00003"
       cy="775"
       r="25" />
    <path
       id="circle879-7-6"
       style="fill:#ffffff;fill-opacity:1;stroke:none;stroke-width:839.998;stroke-linejoin:round;paint-order:stroke fill markers;stop-color:#000000"
       d="M 974.87305 400 A 175 175 0 0 0 800 575 A 175 175 0 0 0 900 733.11328 L 900 450 L 1050 450 L 1050 733.11328 A 175 175 0 0 0 1150 575 A 175 175 0 0 0 975 400 A 175 175 0 0 0 974.87305 400 z "
       transform="translate(-150,150)" />
    <path
       id="rect1434-2-8"
       style="fill:#ffffff;fill-opacity:1;fill-rule:evenodd"
       d="M 1600 400 L 1600 750 L 1791.1992 750 L 1791.1992 591.95117 A 75.000008 75 0 0 1 1750 525 A 75.000008 75 0 0 1 1825 450 A 75.000008 75 0 0 1 1895.7109 500 L 1950 500 L 1950 400 L 1600 400 z "
       transform="translate(-150,150)" />
    <rect
       y="650"
       x="1550"
       height="150"
       width="149.99995"
       id="rect1442-6-2"
       style="fill:#ffffff;fill-opacity:1;fill-rule:evenodd;stroke-width:0.428571" />
    <path
       id="circle938"
       style="fill:#ffffff;fill-opacity:1;stroke:none;stroke-width:839.998;stroke-linejoin:round;paint-order:stroke fill markers;stop-color:#000000"
       d="M 1374.873 400 A 175 175 0 0 0 1216.8867 500 L 1350.5508 500 L 1350.5508 650 L 1216.8867 650 A 175 175 0 0 0 1375 750 A 175 175 0 0 0 1533.1133 650 L 1400 650 L 1400 500 L 1533.1133 500 A 175 175 0 0 0 1375 400 A 175 175 0 0 0 1374.873 400 z "
       transform="translate(-150,150)" />
    <path
       id="rect944"
       style="fill:#ffffff;fill-opacity:1;fill-rule:evenodd"
       d="M 2000 400 L 2000 750 L 2350 750 L 2350 400 L 2000 400 z M 2175 450 A 125 125 0 0 1 2300 575 A 125 125 0 0 1 2175 700 A 125 125 0 0 1 2050 575 A 125 125 0 0 1 2175 450 z "
       transform="translate(-150,150)" />
    <path
       id="circle952"
       style="fill:#ffffff;fill-opacity:1;stroke:none;stroke-width:839.998;stroke-linejoin:round;paint-order:stroke fill markers;stop-color:#000000"
       d="M 2974.873 400 A 175 175 0 0 0 2800 575 A 175 175 0 0 0 2975 750 A 175 175 0 0 0 3150 575 A 175 175 0 0 0 2975 400 A 175 175 0 0 0 2974.873 400 z M 2975 450 A 125 125 0 0 1 3100 575 A 125 125 0 0 1 2975 700 A 125 125 0 0 1 2850 575 A 125 125 0 0 1 2975 450 z "
       transform="translate(-150,150)" />
    <rect
       y="550"
       x="2650"
       height="350"
       width="175"
       id="rect956"
       style="fill:#ffffff;fill-opacity:1;fill-rule:evenodd;stroke-width:0.707108" />
    <path
       id="rect958"
       style="fill:#ffffff;fill-opacity:1;fill-rule:evenodd"
       d="M 2400 400 L 2400 750 L 2750 750 L 2750 650 L 2600 650 L 2500 650 L 2600 450 L 2600 400 L 2400 400 z "
       transform="translate(-150,150)" />
  </g>
</svg>
