<?xml version="1.0" encoding="UTF-8" standalone="no"?>
<svg
   inkscape:export-ydpi="58.514286"
   inkscape:export-xdpi="58.514286"
   width="3192"
   height="792"
   viewBox="0 0 3192 792"
   version="1.1"
   id="svg843"
   sodipodi:docname="readme_logo.svg"
   inkscape:version="1.2.2 (732a01da63, 2022-12-09)"
   xmlns:inkscape="http://www.inkscape.org/namespaces/inkscape"
   xmlns:sodipodi="http://sodipodi.sourceforge.net/DTD/sodipodi-0.dtd"
   xmlns="http://www.w3.org/2000/svg"
   xmlns:svg="http://www.w3.org/2000/svg"
   xmlns:rdf="http://www.w3.org/1999/02/22-rdf-syntax-ns#"
   xmlns:cc="http://creativecommons.org/ns#"
   xmlns:dc="http://purl.org/dc/elements/1.1/">
  <defs
     id="defs837">
    <clipPath
       clipPathUnits="userSpaceOnUse"
       id="clipPath2087">
      <path
         style="display:none;fill:#ffffff;fill-opacity:0.475806;stroke:none;stroke-width:31.75;stroke-linejoin:round;paint-order:stroke fill markers;stop-color:#000000"
         d="m 6.7090774,129.69308 2.8348215,-1.18118 0.9921871,1.74814 -3.8742558,1.37017 z"
         id="path2089" />
      <path
         id="lpe_path-effect2091"
         style="fill:#ffffff;fill-opacity:0.475806;stroke:none;stroke-width:31.75;stroke-linejoin:round;paint-order:stroke fill markers;stop-color:#000000"
         class="powerclip"
         d="M -4.4330357,119.87013 H 20.591518 v 26.77644 H -4.4330357 Z m 11.1421131,9.82295 -0.047247,1.93713 3.8742556,-1.37017 -0.9921869,-1.74814 z" />
    </clipPath>
    <inkscape:path-effect
       effect="powerclip"
       id="path-effect2091"
       is_visible="true"
       lpeversion="1"
       inverse="true"
       flatten="false"
       hide_clip="false"
       message="Use fill-rule evenodd on &lt;b&gt;fill and stroke&lt;/b&gt; dialog if no flatten result after convert clip to paths." />
    <clipPath
       clipPathUnits="userSpaceOnUse"
       id="clipPath2097">
      <path
         style="display:none;fill:#ffffff;fill-opacity:0.479839;stroke:none;stroke-width:31.75;stroke-linejoin:round;paint-order:stroke fill markers;stop-color:#000000"
         d="m 151.42671,135.78795 1.18118,-0.0945 2.55133,5.24442 -6.18935,-1.5119 z"
         id="path2099" />
      <path
         id="lpe_path-effect2101"
         style="fill:#ffffff;fill-opacity:0.479839;stroke:none;stroke-width:31.75;stroke-linejoin:round;paint-order:stroke fill markers;stop-color:#000000"
         class="powerclip"
         d="m 136.18513,121.41848 h 32.18337 v 33.58654 h -32.18337 z m 15.24158,14.36947 -2.45684,3.63802 6.18935,1.5119 -2.55133,-5.24442 z" />
    </clipPath>
    <inkscape:path-effect
       effect="powerclip"
       id="path-effect2101"
       is_visible="true"
       lpeversion="1"
       inverse="true"
       flatten="false"
       hide_clip="false"
       message="Use fill-rule evenodd on &lt;b&gt;fill and stroke&lt;/b&gt; dialog if no flatten result after convert clip to paths." />
  </defs>
  <sodipodi:namedview
     inkscape:snap-global="false"
     inkscape:bbox-nodes="true"
     inkscape:bbox-paths="true"
     inkscape:snap-bbox="true"
     inkscape:snap-smooth-nodes="false"
     id="base"
     pagecolor="#000000"
     bordercolor="#666666"
     borderopacity="1.0"
     inkscape:pageopacity="0"
     inkscape:pageshadow="2"
     inkscape:zoom="0.32138455"
     inkscape:cx="1443.7533"
     inkscape:cy="566.29978"
     inkscape:document-units="px"
     inkscape:current-layer="layer1"
     inkscape:document-rotation="0"
     showgrid="true"
     units="px"
     width="1600mm"
     inkscape:window-width="1920"
     inkscape:window-height="1017"
     inkscape:window-x="-8"
     inkscape:window-y="-8"
     inkscape:window-maximized="1"
     inkscape:pagecheckerboard="true"
     inkscape:showpageshadow="2"
     inkscape:deskcolor="#000000">
    <inkscape:grid
       type="xygrid"
       id="grid1406"
       spacingx="50"
       spacingy="50"
       empspacing="1"
       dotted="false"
       snapvisiblegridlinesonly="true"
       originx="171"
       originy="-129" />
  </sodipodi:namedview>
  <metadata
     id="metadata840">
    <rdf:RDF>
      <cc:Work
         rdf:about="">
        <dc:format>image/svg+xml</dc:format>
        <dc:type
           rdf:resource="http://purl.org/dc/dcmitype/StillImage" />
        <dc:title />
      </cc:Work>
    </rdf:RDF>
  </metadata>
  <g
     inkscape:label="Layer 1"
     inkscape:groupmode="layer"
     id="layer1"
     transform="translate(171,-129)">
    <path
       id="rect1436-3"
       style="fill:#ffffff;fill-opacity:1;fill-rule:evenodd;stroke:#000000;stroke-width:42;stroke-dasharray:none;stroke-opacity:1;paint-order:stroke fill markers"
       d="m 800,0 v 350 h 350 V 0 Z m 400,0 v 350 h 150 V 250 h 200 V 0 h -200 z m 400,0 v 350 h 350 V 250 h -54.2891 A 75,75 0 0 1 1825,300 75,75 0 0 1 1754.7891,250 H 1850 V 100 h -95.2109 A 75,75 0 0 1 1825,50 a 75,75 0 0 1 70.7109,50 H 1950 V 0 Z m 574.873,0 A 175,175 0 0 0 2000,175 175,175 0 0 0 2100,333.11328 V 50 h 150 V 333.11328 A 175,175 0 0 0 2350,175 175,175 0 0 0 2175,0 175,175 0 0 0 2174.873,0 Z M 975,50 A 125,125 0 0 1 1100,175 125,125 0 0 1 975,300 125,125 0 0 1 850,175 125,125 0 0 1 975,50 Z m 450,0 75,150 H 1350 Z M 0,400 V 750 H 50 V 450 H 150 L 100,550 H 250 L 200,450 h 100 v 300 h 50 V 400 Z m 575,0 -175,350 h 50 L 575,500 700,750 h 50 z m 399.87305,0 A 175,175 0 0 0 800,575 175,175 0 0 0 900,733.11328 V 450 h 150 V 733.11328 A 175,175 0 0 0 1150,575 175,175 0 0 0 975,400 a 175,175 0 0 0 -0.12695,0 z m 399.99995,0 a 175,175 0 0 0 -157.9863,100 h 133.6641 V 650 H 1216.8867 A 175,175 0 0 0 1375,750 175,175 0 0 0 1533.1133,650 H 1400 V 500 h 133.1133 A 175,175 0 0 0 1375,400 a 175,175 0 0 0 -0.127,0 z M 1600,400 v 350 h 191.1992 V 650 H 1850 V 500 h -95.2109 A 75.000008,75 0 0 1 1825,450 a 75.000008,75 0 0 1 70.7109,50 H 1950 V 400 Z m 400,0 v 350 h 350 V 400 Z m 400,0 v 350 h 350 V 650 h -150 -100 l 100,-200 v -50 z m 400,0 v 350 h 175 A 175,175 0 0 0 3150,575 175,175 0 0 0 2975,400 Z m -625,50 a 125,125 0 0 1 125,125 125,125 0 0 1 -125,125 125,125 0 0 1 -125,-125 125,125 0 0 1 125,-125 z m 800,0 a 125,125 0 0 1 125,125 125,125 0 0 1 -125,125 z M 575,600 a 25,25 0 0 0 -25,25 25,25 0 0 0 25,25 25,25 0 0 0 25,-25 25,25 0 0 0 -25,-25 z"
       transform="translate(-150,150)" />
  </g>
</svg>
